<mxfile host="app.diagrams.net" agent="Mozilla/5.0 (Windows NT 10.0; Win64; x64) AppleWebKit/537.36 (KHTML, like Gecko) Chrome/137.0.0.0 Safari/537.36 Edg/137.0.0.0" version="27.1.6" pages="3">
  <diagram name="initial" id="fPfGQbioiCVRYNzF3hgY">
    <mxGraphModel dx="2730" dy="2144" grid="1" gridSize="10" guides="1" tooltips="1" connect="1" arrows="1" fold="1" page="1" pageScale="1" pageWidth="850" pageHeight="1100" math="0" shadow="0">
      <root>
        <mxCell id="0" />
        <mxCell id="1" parent="0" />
        <mxCell id="hXhtGVc7Me_PGIMdzoVs-1" value="" style="rounded=0;whiteSpace=wrap;html=1;movable=0;resizable=0;rotatable=0;deletable=0;editable=0;locked=1;connectable=0;" vertex="1" parent="1">
          <mxGeometry x="-810" y="-1060" width="2550" height="3290" as="geometry" />
        </mxCell>
        <mxCell id="hXhtGVc7Me_PGIMdzoVs-2" value="" style="rounded=0;whiteSpace=wrap;html=1;fillColor=#cdeb8b;strokeColor=#36393d;movable=1;resizable=1;rotatable=1;deletable=1;editable=1;locked=0;connectable=1;" vertex="1" parent="1">
          <mxGeometry x="-210" y="-640" width="1320" height="1120" as="geometry" />
        </mxCell>
        <mxCell id="hXhtGVc7Me_PGIMdzoVs-3" value="&lt;li data-end=&quot;418&quot; data-start=&quot;351&quot;&gt;&lt;p data-end=&quot;418&quot; data-start=&quot;354&quot;&gt;&lt;strong data-end=&quot;418&quot; data-start=&quot;354&quot;&gt;Use Case Diagram for Parent-Teacher Communication Mobile App&lt;/strong&gt;&lt;/p&gt;&lt;/li&gt;&lt;li data-end=&quot;492&quot; data-start=&quot;419&quot;&gt;&lt;p data-end=&quot;492&quot; data-start=&quot;422&quot;&gt;&lt;/p&gt;&lt;/li&gt;" style="text;html=1;strokeColor=none;fillColor=none;align=center;verticalAlign=middle;whiteSpace=wrap;rounded=0;fontSize=28;" vertex="1" parent="1">
          <mxGeometry x="-206" y="-610" width="1376" height="30" as="geometry" />
        </mxCell>
        <mxCell id="hXhtGVc7Me_PGIMdzoVs-4" style="rounded=0;orthogonalLoop=1;jettySize=auto;html=1;" edge="1" parent="1" source="hXhtGVc7Me_PGIMdzoVs-7" target="hXhtGVc7Me_PGIMdzoVs-78">
          <mxGeometry relative="1" as="geometry">
            <mxPoint x="1010.0000000000141" y="-145" as="targetPoint" />
          </mxGeometry>
        </mxCell>
        <mxCell id="hXhtGVc7Me_PGIMdzoVs-6" style="rounded=0;orthogonalLoop=1;jettySize=auto;html=1;" edge="1" parent="1" source="hXhtGVc7Me_PGIMdzoVs-7" target="hXhtGVc7Me_PGIMdzoVs-50">
          <mxGeometry relative="1" as="geometry" />
        </mxCell>
        <mxCell id="hXhtGVc7Me_PGIMdzoVs-117" style="rounded=0;orthogonalLoop=1;jettySize=auto;html=1;" edge="1" parent="1" source="hXhtGVc7Me_PGIMdzoVs-7" target="hXhtGVc7Me_PGIMdzoVs-105">
          <mxGeometry relative="1" as="geometry" />
        </mxCell>
        <mxCell id="hXhtGVc7Me_PGIMdzoVs-121" style="rounded=0;orthogonalLoop=1;jettySize=auto;html=1;" edge="1" parent="1" source="hXhtGVc7Me_PGIMdzoVs-7" target="hXhtGVc7Me_PGIMdzoVs-104">
          <mxGeometry relative="1" as="geometry" />
        </mxCell>
        <mxCell id="hXhtGVc7Me_PGIMdzoVs-7" value="Teacher" style="shape=umlActor;verticalLabelPosition=bottom;verticalAlign=top;html=1;outlineConnect=0;" vertex="1" parent="1">
          <mxGeometry x="1250" y="-130" width="50" height="100" as="geometry" />
        </mxCell>
        <mxCell id="hXhtGVc7Me_PGIMdzoVs-18" style="rounded=0;orthogonalLoop=1;jettySize=auto;html=1;entryX=0;entryY=0.5;entryDx=0;entryDy=0;" edge="1" parent="1" target="hXhtGVc7Me_PGIMdzoVs-30">
          <mxGeometry relative="1" as="geometry">
            <mxPoint x="-380" as="sourcePoint" />
          </mxGeometry>
        </mxCell>
        <mxCell id="hXhtGVc7Me_PGIMdzoVs-19" style="rounded=0;orthogonalLoop=1;jettySize=auto;html=1;entryX=0;entryY=0.5;entryDx=0;entryDy=0;" edge="1" parent="1" source="hXhtGVc7Me_PGIMdzoVs-27" target="hXhtGVc7Me_PGIMdzoVs-31">
          <mxGeometry relative="1" as="geometry">
            <mxPoint x="220" y="-70" as="sourcePoint" />
          </mxGeometry>
        </mxCell>
        <mxCell id="hXhtGVc7Me_PGIMdzoVs-20" style="rounded=0;orthogonalLoop=1;jettySize=auto;html=1;entryX=0;entryY=0.5;entryDx=0;entryDy=0;" edge="1" parent="1" source="hXhtGVc7Me_PGIMdzoVs-27" target="hXhtGVc7Me_PGIMdzoVs-32">
          <mxGeometry relative="1" as="geometry">
            <mxPoint x="290" y="-70" as="sourcePoint" />
          </mxGeometry>
        </mxCell>
        <mxCell id="hXhtGVc7Me_PGIMdzoVs-22" style="rounded=0;orthogonalLoop=1;jettySize=auto;html=1;entryX=0;entryY=0.5;entryDx=0;entryDy=0;" edge="1" parent="1" source="hXhtGVc7Me_PGIMdzoVs-27" target="hXhtGVc7Me_PGIMdzoVs-35">
          <mxGeometry relative="1" as="geometry">
            <mxPoint x="469.99999999999704" y="-135" as="targetPoint" />
          </mxGeometry>
        </mxCell>
        <mxCell id="hXhtGVc7Me_PGIMdzoVs-24" style="rounded=0;orthogonalLoop=1;jettySize=auto;html=1;" edge="1" parent="1" source="hXhtGVc7Me_PGIMdzoVs-27" target="hXhtGVc7Me_PGIMdzoVs-46">
          <mxGeometry relative="1" as="geometry" />
        </mxCell>
        <mxCell id="hXhtGVc7Me_PGIMdzoVs-25" style="rounded=0;orthogonalLoop=1;jettySize=auto;html=1;" edge="1" parent="1" target="hXhtGVc7Me_PGIMdzoVs-47">
          <mxGeometry relative="1" as="geometry">
            <mxPoint x="-380" y="-10" as="sourcePoint" />
          </mxGeometry>
        </mxCell>
        <mxCell id="hXhtGVc7Me_PGIMdzoVs-26" style="rounded=0;orthogonalLoop=1;jettySize=auto;html=1;" edge="1" parent="1" source="hXhtGVc7Me_PGIMdzoVs-27" target="hXhtGVc7Me_PGIMdzoVs-33">
          <mxGeometry relative="1" as="geometry" />
        </mxCell>
        <mxCell id="hXhtGVc7Me_PGIMdzoVs-27" value="Employee" style="shape=umlActor;verticalLabelPosition=bottom;verticalAlign=top;html=1;" vertex="1" parent="1">
          <mxGeometry x="-430" y="-40" width="50" height="100" as="geometry" />
        </mxCell>
        <mxCell id="hXhtGVc7Me_PGIMdzoVs-30" value="&lt;div&gt;Send Direct Message&lt;/div&gt;" style="ellipse;whiteSpace=wrap;html=1;" vertex="1" parent="1">
          <mxGeometry x="60" y="-200" width="140" height="70" as="geometry" />
        </mxCell>
        <mxCell id="hXhtGVc7Me_PGIMdzoVs-31" value="View School Calendar" style="ellipse;whiteSpace=wrap;html=1;" vertex="1" parent="1">
          <mxGeometry x="40" y="-45" width="140" height="70" as="geometry" />
        </mxCell>
        <mxCell id="hXhtGVc7Me_PGIMdzoVs-32" value="View Shared Documents" style="ellipse;whiteSpace=wrap;html=1;" vertex="1" parent="1">
          <mxGeometry x="20" y="60" width="140" height="70" as="geometry" />
        </mxCell>
        <mxCell id="hXhtGVc7Me_PGIMdzoVs-33" value="Manage Profile" style="ellipse;whiteSpace=wrap;html=1;" vertex="1" parent="1">
          <mxGeometry x="-20" y="180" width="140" height="70" as="geometry" />
        </mxCell>
        <mxCell id="hXhtGVc7Me_PGIMdzoVs-35" value="Receive Push Notifications" style="ellipse;whiteSpace=wrap;html=1;" vertex="1" parent="1">
          <mxGeometry x="40" y="-320" width="140" height="70" as="geometry" />
        </mxCell>
        <mxCell id="hXhtGVc7Me_PGIMdzoVs-39" value="Manage Classroom" style="ellipse;whiteSpace=wrap;html=1;" vertex="1" parent="1">
          <mxGeometry x="760" y="-400" width="140" height="70" as="geometry" />
        </mxCell>
        <mxCell id="hXhtGVc7Me_PGIMdzoVs-40" style="rounded=0;orthogonalLoop=1;jettySize=auto;html=1;" edge="1" parent="1" source="hXhtGVc7Me_PGIMdzoVs-7" target="hXhtGVc7Me_PGIMdzoVs-39">
          <mxGeometry relative="1" as="geometry">
            <mxPoint x="1587.5" y="172" as="sourcePoint" />
            <mxPoint x="1407.5" y="255" as="targetPoint" />
          </mxGeometry>
        </mxCell>
        <mxCell id="hXhtGVc7Me_PGIMdzoVs-41" value="Login" style="ellipse;whiteSpace=wrap;html=1;" vertex="1" parent="1">
          <mxGeometry x="395" y="-190" width="140" height="70" as="geometry" />
        </mxCell>
        <mxCell id="hXhtGVc7Me_PGIMdzoVs-46" value="Join Classroom via Code" style="ellipse;whiteSpace=wrap;html=1;" vertex="1" parent="1">
          <mxGeometry x="-100" y="-490" width="140" height="70" as="geometry" />
        </mxCell>
        <mxCell id="hXhtGVc7Me_PGIMdzoVs-47" value="View Announcements" style="ellipse;whiteSpace=wrap;html=1;" vertex="1" parent="1">
          <mxGeometry x="-20" y="-400" width="140" height="70" as="geometry" />
        </mxCell>
        <mxCell id="hXhtGVc7Me_PGIMdzoVs-50" value="Create Classroom" style="ellipse;whiteSpace=wrap;html=1;" vertex="1" parent="1">
          <mxGeometry x="890" y="-460" width="140" height="70" as="geometry" />
        </mxCell>
        <mxCell id="hXhtGVc7Me_PGIMdzoVs-78" value="Post Announcements" style="ellipse;whiteSpace=wrap;html=1;" vertex="1" parent="1">
          <mxGeometry x="750" y="-310" width="140" height="70" as="geometry" />
        </mxCell>
        <mxCell id="hXhtGVc7Me_PGIMdzoVs-104" value="Set Priority Levels" style="ellipse;whiteSpace=wrap;html=1;" vertex="1" parent="1">
          <mxGeometry x="740" y="-220" width="140" height="70" as="geometry" />
        </mxCell>
        <mxCell id="hXhtGVc7Me_PGIMdzoVs-105" value="Send Direct Message" style="ellipse;whiteSpace=wrap;html=1;" vertex="1" parent="1">
          <mxGeometry x="740" y="-80" width="140" height="70" as="geometry" />
        </mxCell>
        <mxCell id="hXhtGVc7Me_PGIMdzoVs-106" value="Share Document" style="ellipse;whiteSpace=wrap;html=1;" vertex="1" parent="1">
          <mxGeometry x="780" y="30" width="140" height="70" as="geometry" />
        </mxCell>
        <mxCell id="hXhtGVc7Me_PGIMdzoVs-107" value="Schedule Events" style="ellipse;whiteSpace=wrap;html=1;" vertex="1" parent="1">
          <mxGeometry x="860" y="120" width="140" height="70" as="geometry" />
        </mxCell>
        <mxCell id="hXhtGVc7Me_PGIMdzoVs-108" value="Manage Profile" style="ellipse;whiteSpace=wrap;html=1;" vertex="1" parent="1">
          <mxGeometry x="928.5" y="200" width="140" height="70" as="geometry" />
        </mxCell>
        <mxCell id="hXhtGVc7Me_PGIMdzoVs-109" value="Register Account" style="ellipse;whiteSpace=wrap;html=1;" vertex="1" parent="1">
          <mxGeometry x="300" width="140" height="70" as="geometry" />
        </mxCell>
        <mxCell id="hXhtGVc7Me_PGIMdzoVs-112" value="&amp;lt;&amp;lt;extend&amp;gt;&amp;gt;" style="html=1;verticalAlign=bottom;labelBackgroundColor=none;endArrow=open;endFill=0;dashed=1;rounded=0;strokeWidth=1;" edge="1" parent="1" source="hXhtGVc7Me_PGIMdzoVs-109" target="hXhtGVc7Me_PGIMdzoVs-41">
          <mxGeometry x="-0.0089" width="160" relative="1" as="geometry">
            <mxPoint x="214" y="-75" as="sourcePoint" />
            <mxPoint x="325" y="-50" as="targetPoint" />
            <mxPoint as="offset" />
          </mxGeometry>
        </mxCell>
        <mxCell id="hXhtGVc7Me_PGIMdzoVs-113" value="Reset Password" style="ellipse;whiteSpace=wrap;html=1;" vertex="1" parent="1">
          <mxGeometry x="480" width="140" height="70" as="geometry" />
        </mxCell>
        <mxCell id="hXhtGVc7Me_PGIMdzoVs-114" value="&amp;lt;&amp;lt;extend&amp;gt;&amp;gt;" style="html=1;verticalAlign=bottom;labelBackgroundColor=none;endArrow=open;endFill=0;dashed=1;rounded=0;strokeWidth=1;" edge="1" parent="1" source="hXhtGVc7Me_PGIMdzoVs-113" target="hXhtGVc7Me_PGIMdzoVs-41">
          <mxGeometry x="-0.0089" width="160" relative="1" as="geometry">
            <mxPoint x="363" y="283" as="sourcePoint" />
            <mxPoint x="422" y="217" as="targetPoint" />
            <mxPoint as="offset" />
          </mxGeometry>
        </mxCell>
        <mxCell id="hXhtGVc7Me_PGIMdzoVs-118" style="rounded=0;orthogonalLoop=1;jettySize=auto;html=1;" edge="1" parent="1" source="hXhtGVc7Me_PGIMdzoVs-7" target="hXhtGVc7Me_PGIMdzoVs-106">
          <mxGeometry relative="1" as="geometry">
            <mxPoint x="1260" y="-68" as="sourcePoint" />
            <mxPoint x="889" y="-40" as="targetPoint" />
          </mxGeometry>
        </mxCell>
        <mxCell id="hXhtGVc7Me_PGIMdzoVs-119" style="rounded=0;orthogonalLoop=1;jettySize=auto;html=1;" edge="1" parent="1" source="hXhtGVc7Me_PGIMdzoVs-7" target="hXhtGVc7Me_PGIMdzoVs-107">
          <mxGeometry relative="1" as="geometry">
            <mxPoint x="1270" y="-58" as="sourcePoint" />
            <mxPoint x="919" y="56" as="targetPoint" />
          </mxGeometry>
        </mxCell>
        <mxCell id="hXhtGVc7Me_PGIMdzoVs-120" style="rounded=0;orthogonalLoop=1;jettySize=auto;html=1;" edge="1" parent="1" source="hXhtGVc7Me_PGIMdzoVs-7" target="hXhtGVc7Me_PGIMdzoVs-108">
          <mxGeometry relative="1" as="geometry">
            <mxPoint x="1280" y="-48" as="sourcePoint" />
            <mxPoint x="984" y="138" as="targetPoint" />
          </mxGeometry>
        </mxCell>
        <mxCell id="hXhtGVc7Me_PGIMdzoVs-122" style="rounded=0;orthogonalLoop=1;jettySize=auto;html=1;" edge="1" parent="1" source="hXhtGVc7Me_PGIMdzoVs-7" target="hXhtGVc7Me_PGIMdzoVs-41">
          <mxGeometry relative="1" as="geometry">
            <mxPoint x="1260" y="-76" as="sourcePoint" />
            <mxPoint x="884" y="-161" as="targetPoint" />
          </mxGeometry>
        </mxCell>
        <mxCell id="hXhtGVc7Me_PGIMdzoVs-123" style="rounded=0;orthogonalLoop=1;jettySize=auto;html=1;exitX=0.628;exitY=0.31;exitDx=0;exitDy=0;exitPerimeter=0;" edge="1" parent="1" source="hXhtGVc7Me_PGIMdzoVs-27" target="hXhtGVc7Me_PGIMdzoVs-41">
          <mxGeometry relative="1" as="geometry">
            <mxPoint x="-370" y="10" as="sourcePoint" />
            <mxPoint x="70" y="-155" as="targetPoint" />
          </mxGeometry>
        </mxCell>
      </root>
    </mxGraphModel>
  </diagram>
  <diagram name="initialv2" id="fVvwK9hB6NUy1kVA2rcM">
    <mxGraphModel dx="1426" dy="831" grid="1" gridSize="10" guides="1" tooltips="1" connect="1" arrows="1" fold="1" page="1" pageScale="1" pageWidth="850" pageHeight="1100" math="0" shadow="0">
      <root>
        <mxCell id="0" />
        <mxCell id="1" parent="0" />
        <mxCell id="ovWVx2ytmTRpoBnnrlcp-1" value="Calculating salaries, wages, bonuses, and deductions" style="shape=note;whiteSpace=wrap;html=1;backgroundOutline=1;darkOpacity=0.05;fontSize=2;" parent="1" vertex="1">
          <mxGeometry x="890" y="650" width="60" height="10" as="geometry" />
        </mxCell>
        <mxCell id="ovWVx2ytmTRpoBnnrlcp-2" value="" style="rounded=0;whiteSpace=wrap;html=1;" parent="1" vertex="1">
          <mxGeometry width="1700" height="2200" as="geometry" />
        </mxCell>
        <mxCell id="ovWVx2ytmTRpoBnnrlcp-3" value="" style="rounded=0;whiteSpace=wrap;html=1;fillColor=#cdeb8b;strokeColor=#36393d;" parent="1" vertex="1">
          <mxGeometry x="430" y="410" width="740" height="1260" as="geometry" />
        </mxCell>
        <mxCell id="ovWVx2ytmTRpoBnnrlcp-4" value="&lt;font style=&quot;font-size: 28px;&quot;&gt;&lt;b style=&quot;font-size: 28px;&quot;&gt;MotorPH Payroll System&lt;/b&gt;&lt;/font&gt;" style="text;html=1;strokeColor=none;fillColor=none;align=center;verticalAlign=middle;whiteSpace=wrap;rounded=0;fontSize=28;" parent="1" vertex="1">
          <mxGeometry x="455" y="430" width="695" height="30" as="geometry" />
        </mxCell>
        <mxCell id="ovWVx2ytmTRpoBnnrlcp-5" style="rounded=0;orthogonalLoop=1;jettySize=auto;html=1;entryX=1;entryY=0.5;entryDx=0;entryDy=0;" parent="1" source="ovWVx2ytmTRpoBnnrlcp-6" target="ovWVx2ytmTRpoBnnrlcp-28" edge="1">
          <mxGeometry relative="1" as="geometry" />
        </mxCell>
        <mxCell id="ovWVx2ytmTRpoBnnrlcp-6" value="Payroll Staff" style="shape=umlActor;verticalLabelPosition=bottom;verticalAlign=top;html=1;outlineConnect=0;" parent="1" vertex="1">
          <mxGeometry x="1224" y="650" width="30" height="60" as="geometry" />
        </mxCell>
        <mxCell id="ovWVx2ytmTRpoBnnrlcp-7" style="rounded=0;orthogonalLoop=1;jettySize=auto;html=1;entryX=1;entryY=0.5;entryDx=0;entryDy=0;" parent="1" source="ovWVx2ytmTRpoBnnrlcp-9" target="ovWVx2ytmTRpoBnnrlcp-21" edge="1">
          <mxGeometry relative="1" as="geometry" />
        </mxCell>
        <mxCell id="ovWVx2ytmTRpoBnnrlcp-8" style="rounded=0;orthogonalLoop=1;jettySize=auto;html=1;entryX=1;entryY=0.5;entryDx=0;entryDy=0;" parent="1" source="ovWVx2ytmTRpoBnnrlcp-9" target="ovWVx2ytmTRpoBnnrlcp-27" edge="1">
          <mxGeometry relative="1" as="geometry">
            <mxPoint x="1230" y="1110" as="sourcePoint" />
          </mxGeometry>
        </mxCell>
        <mxCell id="ovWVx2ytmTRpoBnnrlcp-9" value="Payroll Manager" style="shape=umlActor;verticalLabelPosition=bottom;verticalAlign=top;html=1;outlineConnect=0;" parent="1" vertex="1">
          <mxGeometry x="1224" y="1100" width="30" height="60" as="geometry" />
        </mxCell>
        <mxCell id="ovWVx2ytmTRpoBnnrlcp-10" value="Payroll Team Lead" style="shape=umlActor;verticalLabelPosition=bottom;verticalAlign=top;html=1;outlineConnect=0;" parent="1" vertex="1">
          <mxGeometry x="1224" y="815" width="30" height="60" as="geometry" />
        </mxCell>
        <mxCell id="ovWVx2ytmTRpoBnnrlcp-11" style="rounded=0;orthogonalLoop=1;jettySize=auto;html=1;entryX=0;entryY=0.5;entryDx=0;entryDy=0;exitX=1;exitY=0.3333333333333333;exitDx=0;exitDy=0;exitPerimeter=0;" parent="1" source="ovWVx2ytmTRpoBnnrlcp-16" target="ovWVx2ytmTRpoBnnrlcp-22" edge="1">
          <mxGeometry relative="1" as="geometry" />
        </mxCell>
        <mxCell id="ovWVx2ytmTRpoBnnrlcp-12" style="rounded=0;orthogonalLoop=1;jettySize=auto;html=1;entryX=0;entryY=0.5;entryDx=0;entryDy=0;" parent="1" source="ovWVx2ytmTRpoBnnrlcp-16" target="ovWVx2ytmTRpoBnnrlcp-23" edge="1">
          <mxGeometry relative="1" as="geometry">
            <mxPoint x="310" y="870" as="sourcePoint" />
          </mxGeometry>
        </mxCell>
        <mxCell id="ovWVx2ytmTRpoBnnrlcp-13" style="rounded=0;orthogonalLoop=1;jettySize=auto;html=1;entryX=0;entryY=0.5;entryDx=0;entryDy=0;" parent="1" source="ovWVx2ytmTRpoBnnrlcp-16" target="ovWVx2ytmTRpoBnnrlcp-24" edge="1">
          <mxGeometry relative="1" as="geometry">
            <mxPoint x="380" y="870" as="sourcePoint" />
          </mxGeometry>
        </mxCell>
        <mxCell id="ovWVx2ytmTRpoBnnrlcp-14" style="rounded=0;orthogonalLoop=1;jettySize=auto;html=1;entryX=0;entryY=0.5;entryDx=0;entryDy=0;" parent="1" source="ovWVx2ytmTRpoBnnrlcp-16" target="ovWVx2ytmTRpoBnnrlcp-17" edge="1">
          <mxGeometry relative="1" as="geometry">
            <mxPoint x="370" y="870" as="sourcePoint" />
          </mxGeometry>
        </mxCell>
        <mxCell id="ovWVx2ytmTRpoBnnrlcp-15" style="rounded=0;orthogonalLoop=1;jettySize=auto;html=1;entryX=0;entryY=0.5;entryDx=0;entryDy=0;" parent="1" source="ovWVx2ytmTRpoBnnrlcp-16" target="ovWVx2ytmTRpoBnnrlcp-31" edge="1">
          <mxGeometry relative="1" as="geometry" />
        </mxCell>
        <mxCell id="ovWVx2ytmTRpoBnnrlcp-16" value="Employee" style="shape=umlActor;verticalLabelPosition=bottom;verticalAlign=top;html=1;" parent="1" vertex="1">
          <mxGeometry x="280" y="850" width="30" height="60" as="geometry" />
        </mxCell>
        <mxCell id="ovWVx2ytmTRpoBnnrlcp-17" value="Create Leave Request" style="ellipse;whiteSpace=wrap;html=1;" parent="1" vertex="1">
          <mxGeometry x="455" y="1040" width="140" height="70" as="geometry" />
        </mxCell>
        <mxCell id="ovWVx2ytmTRpoBnnrlcp-18" style="rounded=0;orthogonalLoop=1;jettySize=auto;html=1;entryX=1;entryY=0.5;entryDx=0;entryDy=0;" parent="1" source="ovWVx2ytmTRpoBnnrlcp-20" target="ovWVx2ytmTRpoBnnrlcp-25" edge="1">
          <mxGeometry relative="1" as="geometry" />
        </mxCell>
        <mxCell id="ovWVx2ytmTRpoBnnrlcp-19" style="rounded=0;orthogonalLoop=1;jettySize=auto;html=1;" parent="1" source="ovWVx2ytmTRpoBnnrlcp-20" target="ovWVx2ytmTRpoBnnrlcp-29" edge="1">
          <mxGeometry relative="1" as="geometry">
            <mxPoint x="1210" y="1460" as="sourcePoint" />
          </mxGeometry>
        </mxCell>
        <mxCell id="ovWVx2ytmTRpoBnnrlcp-20" value="System" style="shape=umlActor;verticalLabelPosition=bottom;verticalAlign=top;html=1;outlineConnect=0;" parent="1" vertex="1">
          <mxGeometry x="1230" y="1580" width="30" height="60" as="geometry" />
        </mxCell>
        <mxCell id="ovWVx2ytmTRpoBnnrlcp-21" value="Manage Leave Request" style="ellipse;whiteSpace=wrap;html=1;" parent="1" vertex="1">
          <mxGeometry x="850" y="1040" width="140" height="70" as="geometry" />
        </mxCell>
        <mxCell id="ovWVx2ytmTRpoBnnrlcp-22" value="View Account" style="ellipse;whiteSpace=wrap;html=1;" parent="1" vertex="1">
          <mxGeometry x="480" y="690" width="140" height="70" as="geometry" />
        </mxCell>
        <mxCell id="ovWVx2ytmTRpoBnnrlcp-23" value="View Leave Credits&amp;nbsp;" style="ellipse;whiteSpace=wrap;html=1;" parent="1" vertex="1">
          <mxGeometry x="580" y="865" width="140" height="70" as="geometry" />
        </mxCell>
        <mxCell id="ovWVx2ytmTRpoBnnrlcp-24" value="View Payroll Information" style="ellipse;whiteSpace=wrap;html=1;" parent="1" vertex="1">
          <mxGeometry x="530" y="960" width="140" height="70" as="geometry" />
        </mxCell>
        <mxCell id="ovWVx2ytmTRpoBnnrlcp-25" value="Check the Current Year&#39;s Remaining Credits" style="ellipse;whiteSpace=wrap;html=1;" parent="1" vertex="1">
          <mxGeometry x="570" y="1380" width="140" height="70" as="geometry" />
        </mxCell>
        <mxCell id="ovWVx2ytmTRpoBnnrlcp-26" value="&amp;lt;&amp;lt;include&amp;gt;&amp;gt;" style="html=1;verticalAlign=bottom;labelBackgroundColor=none;endArrow=open;endFill=0;dashed=1;rounded=0;strokeWidth=1;" parent="1" source="ovWVx2ytmTRpoBnnrlcp-17" target="ovWVx2ytmTRpoBnnrlcp-25" edge="1">
          <mxGeometry width="160" relative="1" as="geometry">
            <mxPoint x="470" y="1160" as="sourcePoint" />
            <mxPoint x="630" y="1160" as="targetPoint" />
            <mxPoint as="offset" />
          </mxGeometry>
        </mxCell>
        <mxCell id="ovWVx2ytmTRpoBnnrlcp-27" value="Monthly Payroll Salary Report" style="ellipse;whiteSpace=wrap;html=1;" parent="1" vertex="1">
          <mxGeometry x="920" y="1160" width="140" height="70" as="geometry" />
        </mxCell>
        <mxCell id="ovWVx2ytmTRpoBnnrlcp-28" value="Prepare Payslip" style="ellipse;whiteSpace=wrap;html=1;" parent="1" vertex="1">
          <mxGeometry x="850" y="605" width="140" height="70" as="geometry" />
        </mxCell>
        <mxCell id="ovWVx2ytmTRpoBnnrlcp-29" value="Generate Salary" style="ellipse;whiteSpace=wrap;html=1;" parent="1" vertex="1">
          <mxGeometry x="710" y="1110" width="140" height="70" as="geometry" />
        </mxCell>
        <mxCell id="ovWVx2ytmTRpoBnnrlcp-30" value="&amp;lt;&amp;lt;include&amp;gt;&amp;gt;" style="html=1;verticalAlign=bottom;labelBackgroundColor=none;endArrow=open;endFill=0;dashed=1;rounded=0;strokeWidth=1;" parent="1" source="ovWVx2ytmTRpoBnnrlcp-28" target="ovWVx2ytmTRpoBnnrlcp-29" edge="1">
          <mxGeometry x="-0.6625" y="1" width="160" relative="1" as="geometry">
            <mxPoint x="670" y="1000" as="sourcePoint" />
            <mxPoint x="745" y="1300" as="targetPoint" />
            <mxPoint as="offset" />
            <Array as="points">
              <mxPoint x="840" y="740" />
            </Array>
          </mxGeometry>
        </mxCell>
        <mxCell id="ovWVx2ytmTRpoBnnrlcp-31" value="Login" style="ellipse;whiteSpace=wrap;html=1;" parent="1" vertex="1">
          <mxGeometry x="560" y="770" width="140" height="70" as="geometry" />
        </mxCell>
        <mxCell id="ovWVx2ytmTRpoBnnrlcp-32" value="&amp;lt;&amp;lt;extend&amp;gt;&amp;gt;" style="html=1;verticalAlign=bottom;labelBackgroundColor=none;endArrow=open;endFill=0;dashed=1;rounded=0;" parent="1" source="ovWVx2ytmTRpoBnnrlcp-31" target="ovWVx2ytmTRpoBnnrlcp-33" edge="1">
          <mxGeometry width="160" relative="1" as="geometry">
            <mxPoint x="680" y="690" as="sourcePoint" />
            <mxPoint x="840" y="690" as="targetPoint" />
          </mxGeometry>
        </mxCell>
        <mxCell id="ovWVx2ytmTRpoBnnrlcp-33" value="Reset Password" style="ellipse;whiteSpace=wrap;html=1;" parent="1" vertex="1">
          <mxGeometry x="680" y="620" width="140" height="70" as="geometry" />
        </mxCell>
        <mxCell id="ovWVx2ytmTRpoBnnrlcp-34" value="Generate Deduction" style="ellipse;whiteSpace=wrap;html=1;" parent="1" vertex="1">
          <mxGeometry x="650" y="1260" width="140" height="70" as="geometry" />
        </mxCell>
        <mxCell id="ovWVx2ytmTRpoBnnrlcp-35" value="&amp;lt;&amp;lt;include&amp;gt;&amp;gt;" style="html=1;verticalAlign=bottom;labelBackgroundColor=none;endArrow=open;endFill=0;dashed=1;rounded=0;strokeWidth=1;" parent="1" source="ovWVx2ytmTRpoBnnrlcp-29" target="ovWVx2ytmTRpoBnnrlcp-34" edge="1">
          <mxGeometry width="160" relative="1" as="geometry">
            <mxPoint x="605" y="1085" as="sourcePoint" />
            <mxPoint x="660" y="1435" as="targetPoint" />
            <mxPoint as="offset" />
          </mxGeometry>
        </mxCell>
        <mxCell id="ovWVx2ytmTRpoBnnrlcp-36" value="Modify Personal Information" style="ellipse;whiteSpace=wrap;html=1;" parent="1" vertex="1">
          <mxGeometry x="580" y="535" width="140" height="70" as="geometry" />
        </mxCell>
        <mxCell id="ovWVx2ytmTRpoBnnrlcp-37" value="&amp;lt;&amp;lt;extend&amp;gt;&amp;gt;" style="html=1;verticalAlign=bottom;labelBackgroundColor=none;endArrow=open;endFill=0;dashed=1;rounded=0;" parent="1" source="ovWVx2ytmTRpoBnnrlcp-22" target="ovWVx2ytmTRpoBnnrlcp-36" edge="1">
          <mxGeometry width="160" relative="1" as="geometry">
            <mxPoint x="602" y="690" as="sourcePoint" />
            <mxPoint x="670" y="604" as="targetPoint" />
          </mxGeometry>
        </mxCell>
        <mxCell id="ovWVx2ytmTRpoBnnrlcp-38" value="Approve Payslip" style="ellipse;whiteSpace=wrap;html=1;" parent="1" vertex="1">
          <mxGeometry x="950" y="810" width="140" height="70" as="geometry" />
        </mxCell>
        <mxCell id="ovWVx2ytmTRpoBnnrlcp-39" style="rounded=0;orthogonalLoop=1;jettySize=auto;html=1;" parent="1" source="ovWVx2ytmTRpoBnnrlcp-10" target="ovWVx2ytmTRpoBnnrlcp-38" edge="1">
          <mxGeometry relative="1" as="geometry">
            <mxPoint x="1234" y="906" as="sourcePoint" />
            <mxPoint x="1110" y="875" as="targetPoint" />
          </mxGeometry>
        </mxCell>
        <mxCell id="ovWVx2ytmTRpoBnnrlcp-40" style="rounded=0;orthogonalLoop=1;jettySize=auto;html=1;" parent="1" source="ovWVx2ytmTRpoBnnrlcp-9" target="ovWVx2ytmTRpoBnnrlcp-38" edge="1">
          <mxGeometry relative="1" as="geometry">
            <mxPoint x="1234" y="913" as="sourcePoint" />
            <mxPoint x="1095" y="942" as="targetPoint" />
          </mxGeometry>
        </mxCell>
      </root>
    </mxGraphModel>
  </diagram>
  <diagram name="venn diagram" id="0H_xEJhO5j-mSmX3Duza">
    <mxGraphModel dx="2593" dy="2611" grid="1" gridSize="10" guides="1" tooltips="1" connect="1" arrows="1" fold="1" page="1" pageScale="1" pageWidth="850" pageHeight="1100" math="0" shadow="0">
      <root>
        <mxCell id="0" />
        <mxCell id="1" parent="0" />
        <mxCell id="JpZl0v4MXS7x5yWovOg6-4" value="Payroll Administrator" style="ellipse;whiteSpace=wrap;html=1;aspect=fixed;fillColor=none;" vertex="1" parent="1">
          <mxGeometry x="400" y="50" width="540" height="540" as="geometry" />
        </mxCell>
        <mxCell id="JpZl0v4MXS7x5yWovOg6-5" value="HR Administrator" style="ellipse;whiteSpace=wrap;html=1;aspect=fixed;fillColor=none;" vertex="1" parent="1">
          <mxGeometry y="50" width="540" height="540" as="geometry" />
        </mxCell>
        <mxCell id="JpZl0v4MXS7x5yWovOg6-6" value="Employee" style="ellipse;whiteSpace=wrap;html=1;aspect=fixed;fillColor=none;" vertex="1" parent="1">
          <mxGeometry x="220" y="-290" width="540" height="540" as="geometry" />
        </mxCell>
      </root>
    </mxGraphModel>
  </diagram>
</mxfile>
